<svg id="Layer_1" data-name="Layer 1" xmlns="http://www.w3.org/2000/svg" viewBox="0 0 512 512"><defs><style>.cls-1{fill:#141f38;}</style></defs><title>sim-card-outline</title><path class="cls-1" d="M337.49,0H111.59A59.14,59.14,0,0,0,52.51,59.08V452.92A59.14,59.14,0,0,0,111.59,512H400.41a59.14,59.14,0,0,0,59.08-59.08V122ZM446.36,452.92a46,46,0,0,1-45.95,45.95H111.59a46,46,0,0,1-45.95-45.95V59.08a46,46,0,0,1,45.95-45.95H332.05L446.36,127.44Z"/><path class="cls-1" d="M131.28,223.18V393.85a39.43,39.43,0,0,0,39.38,39.38H341.33a39.43,39.43,0,0,0,39.38-39.38V223.18a39.43,39.43,0,0,0-39.38-39.38H170.67A39.43,39.43,0,0,0,131.28,223.18Zm39.38-26.26H288.82V420.1H223.18V262.56H144.41V223.18A26.28,26.28,0,0,1,170.67,196.92Zm131.28,78.77h65.64v65.64H301.95Zm-91.9,65.64H144.41V275.69h65.64Zm-65.64,52.51V354.46h65.64V420.1H170.67A26.28,26.28,0,0,1,144.41,393.85ZM341.33,420.1H301.95V354.46h65.64v39.38A26.28,26.28,0,0,1,341.33,420.1Zm26.26-196.92v39.38H301.95V196.92h39.38A26.28,26.28,0,0,1,367.59,223.18Z"/></svg>